<?xml version="1.0" encoding="utf-8"?>
<!-- Generator: Adobe Illustrator 21.1.0, SVG Export Plug-In . SVG Version: 6.00 Build 0)  -->
<svg version="1.1" id="Capa_1" xmlns="http://www.w3.org/2000/svg" xmlns:xlink="http://www.w3.org/1999/xlink" x="0px" y="0px"
	 viewBox="0 0 200 100" style="enable-background:new 0 0 200 100;" xml:space="preserve">
<style type="text/css">
	.st0{fill:#BA2B31;}
	.st1{fill:#E3A330;}
	.st2{fill:#552D5D;}
	.st3{fill:#389742;}
	.st4{fill:#172953;}
</style>
<g>
	<path class="st0" d="M91.4,24.9c-0.4-0.6-1.1-0.9-2.1-0.9c-0.7-0.1-1.6,0-2.6,0.2c-0.9,0.2-1.8,0.4-2.6,0.7
		c-0.9,0.3-1.6,0.5-2.3,0.7c-0.9,0.3-1.2,0.4-1.4,0.6c-1.5,1-3,2.1-4.2,3.4c-1,1.1-2,2.2-2.9,3.4c-0.1-0.1-0.1-0.1-0.2-0.3
		c-0.3-0.4-0.6-0.8-0.9-1c-0.4-0.4-0.9-0.5-1.2-0.5c-0.3,0-0.8,0-1.2,0.5c-0.5,0.5-1,1.3-1.4,2.6c-0.4,1.1-0.7,2.3-1.1,3.6
		c-0.3,1.3-0.7,2.8-0.9,4.2c-0.3,1.5-0.5,2.8-0.7,4.1c-0.2,1.2-0.3,2.3-0.4,3.1c-0.1,1.2-0.2,2,0.5,2.4c0.1,0.1,0.4,0.2,0.7,0.4
		c0.5,0.2,0.8,0.4,1.1,0.4c0.9,0,1.5-0.9,1.9-1.6c0.4-0.7,0.9-1.6,1.5-2.8c0.6-1.1,1.3-2.4,2-3.9c0.8-1.4,1.6-2.8,2.5-4.4
		c0.9-1.4,2-2.9,3-4.3c1.1-1.4,2.3-2.7,3.5-3.8c1.2-1.1,2.5-1.9,3.8-2.6c1.3-0.6,2.6-0.9,4.1-1c0.4,0,0.7-0.2,0.9-0.5
		C91.9,26.6,92,25.6,91.4,24.9z"/>
	<path class="st1" d="M114.5,24.9c-0.4-0.6-1.1-0.9-2.1-0.9c-0.7-0.1-1.6,0-2.5,0.2c-0.9,0.2-1.8,0.4-2.6,0.7
		c-0.8,0.3-1.6,0.5-2.3,0.7c-0.9,0.3-1.2,0.4-1.4,0.6c-1.5,0.9-2.9,2.1-4.2,3.4c-1,1.1-2,2.2-2.9,3.4c-0.1-0.1-0.1-0.1-0.2-0.3
		c-0.3-0.4-0.6-0.8-0.9-1c-0.4-0.4-0.9-0.5-1.2-0.5c-0.3,0-0.8,0-1.2,0.5c-0.5,0.5-1,1.3-1.4,2.6c-0.4,1.1-0.7,2.3-1.1,3.6
		c-0.3,1.4-0.7,2.8-0.9,4.2c-0.3,1.5-0.5,2.8-0.7,4.1c-0.2,1.2-0.3,2.3-0.4,3.1c-0.1,1.2-0.2,2,0.5,2.4c0.2,0.1,0.4,0.2,0.7,0.4
		c0.5,0.2,0.7,0.4,1.1,0.4c0.9,0,1.5-0.9,1.9-1.6c0.4-0.7,0.9-1.6,1.5-2.8c0.6-1.1,1.3-2.4,2-3.9c0.8-1.4,1.6-2.9,2.5-4.4
		c0.9-1.4,1.9-2.9,3-4.3c1.1-1.4,2.2-2.7,3.4-3.8c1.2-1.1,2.5-1.9,3.8-2.6c1.3-0.6,2.7-0.9,4.1-1c0.4,0,0.7-0.2,1-0.5
		C115,26.6,115.1,25.6,114.5,24.9z"/>
	<g>
		<path class="st2" d="M120.1,31.2c-0.9,0-1.7,0.9-2.3,1.8c-0.8,1.2-1.9,3.1-3.1,6c-1.2,2.8-2.5,6.6-4,11.3c-0.1,0.3-0.1,0.5,0,0.8
			c0.3,0.8,0.9,1.3,1.6,1.4c0.2,0,0.4,0.1,0.6,0.1c0.4,0,0.7-0.1,1-0.2c0.2-0.1,0.5-0.2,0.6-0.5c2-3.5,3.5-6.7,4.6-9.4
			c1.1-2.8,1.8-4.9,2.2-6.7c0.5-2.1,0.4-3.2-0.2-3.9C121,31.5,120.6,31.2,120.1,31.2z"/>
		<path class="st2" d="M125,23.7c-0.2-0.8-0.7-1.4-1.4-1.7c-0.7-0.3-1.6-0.3-2.7,0c-0.3,0.1-0.5,0.3-0.7,0.5
			c-0.2,0.3-0.2,0.6-0.2,0.9c0,0.2,0,0.4,0,0.6c0,0.2,0,0.5,0,0.7c0,0.2,0,0.5,0.1,0.7c0.3,0.8,0.8,1.8,1.7,2.2
			c0.3,0.1,0.6,0.2,0.8,0.2c0.5,0,0.9-0.2,1.3-0.5c0.5-0.4,0.8-0.9,1-1.6C125.1,24.9,125.2,24.3,125,23.7z"/>
	</g>
	<path class="st3" d="M152.4,27.4c-0.5-0.8-1.5-1.1-2.7-0.4c-0.6,0.4-1.4,1-2.4,1.9c-0.9,0.8-1.9,1.8-3,3c-1.1,1.1-2.2,2.3-3.4,3.6
		c-1.2,1.3-2.4,2.6-3.6,3.8c-1.2,1.2-2.3,2.4-3.4,3.5c-1.1,1.1-2.1,2-3,2.7c-0.7,0.5-1.2,1-1.7,1.2c0-0.9,0-1.8,0.1-2.6
		c0.1-1.2,0.2-2.4,0.3-3.6c0.1-1.2,0.2-2.4,0.3-3.6c0.1-1.3,0.1-2.5,0-3.8c0-0.2-0.1-0.4-0.2-0.6c-0.3-0.4-0.6-0.7-0.8-1
		c-0.3-0.3-0.6-0.5-0.9-0.6c-0.6-0.3-1.2-0.2-1.7,0.1c-0.2,0.2-0.4,0.4-0.5,0.7c-0.1,0.5-0.3,1.2-0.5,2.2c-0.3,1-0.5,2-0.7,3.3
		c-0.3,1.2-0.5,2.4-0.7,3.8c-0.2,1.4-0.2,2.7-0.2,3.9c0.1,1.3,0.3,2.5,0.6,3.5c0.4,1.2,1.1,2.1,2.1,2.6c0.9,0.6,1.9,0.9,2.9,0.9
		c0.3,0,0.5,0,0.8-0.1c1.2-0.2,2.4-0.6,3.6-1.3c1.2-0.7,2.4-1.6,3.6-2.7c1.2-1.1,2.3-2.2,3.5-3.5c1.1-1.3,2.3-2.6,3.3-3.9
		c1.1-1.3,2.1-2.6,3.1-3.8c0.9-1.2,1.8-2.3,2.7-3.3c0.8-0.9,1.5-1.7,2.1-2.2c0.2-0.1,0.3-0.3,0.3-0.5
		C152.7,28.9,152.8,28.1,152.4,27.4z"/>
	<path class="st4" d="M192.9,37.1c-0.2-0.5-0.9-1.4-3-0.9c-0.2,0-0.3,0.1-0.5,0.2c-1,0.8-2,1.4-2.8,2c-0.8,0.6-1.8,1.2-2.9,1.8
		c-1.1,0.6-2.2,1.3-3.4,1.9c-1.1,0.5-2.2,1.1-3.3,1.4c-1,0.4-2,0.6-2.8,0.7c-0.7,0.1-1.2-0.1-1.7-0.3c-0.3-0.2-0.5-0.6-0.6-1.3
		c-0.1-0.9-0.1-1.8,0.1-2.7c0.2-1,0.5-2,0.8-2.9c0.4-1,0.7-2,1.1-2.9c0.4-1.1,0.8-2.1,1-3.1c0.2-1.1,0.2-2.2,0-3.2
		c-0.2-1.1-0.7-2.2-1.5-3.2c-1.3-1.7-2.9-2.6-4.5-2.9c-1.6-0.3-3.3,0-5,0.8c-1.6,0.7-3.2,1.8-4.7,3.3c-1.5,1.4-2.9,3-4.2,4.8
		c-1.3,1.8-2.4,3.6-3.4,5.6c-1,2-1.7,3.9-2.2,5.7c-0.5,1.8-0.7,3.5-0.6,5.1c0.1,1.7,0.7,3.1,1.8,4c1.2,1,2.4,1.5,3.6,1.7
		c0.3,0,0.6,0.1,0.9,0.1c0.9,0,1.8-0.2,2.7-0.5c1.1-0.4,2.3-1,3.3-1.7c1-0.8,2-1.6,2.9-2.4c0.9-0.8,1.7-1.7,2.5-2.5
		c0.4-0.4,0.7-0.7,1-1c0.3,0.5,0.6,1,1,1.4c1,1.3,2.3,2,3.8,2.4c1.4,0.3,2.9,0.3,4.5,0c1.5-0.2,3.1-0.7,4.7-1.4
		c1.5-0.6,3-1.4,4.4-2.2c1.3-0.8,2.6-1.7,3.7-2.5c1.1-0.9,1.9-1.7,2.5-2.4C192.5,39.4,193.4,38.3,192.9,37.1z M153.2,47.9
		c-0.2-0.6-0.1-1.4,0.1-2.4c0.3-1.1,0.7-2.3,1.3-3.6c0.6-1.4,1.3-2.9,2.2-4.3c0.8-1.5,1.8-2.9,2.8-4.3c1-1.4,2-2.7,3.1-3.8
		c1.1-1.2,2.1-2.1,3.1-2.8c0.9-0.6,1.7-1.1,2.5-1.3c0.2-0.1,0.4-0.1,0.5-0.1c0.1,0,0.3,0,0.4,0.1c0.2,1.4,0.1,2.8-0.2,4.3
		c-0.3,1.7-0.8,3.3-1.5,4.9c-0.7,1.6-1.5,3.2-2.5,4.7c-1,1.5-2,2.9-3.1,4.1c-1.1,1.2-2.2,2.3-3.3,3.1c-1.1,0.8-2,1.4-2.9,1.8
		c-0.6,0.2-1.1,0.4-1.5,0.4c-0.1,0-0.2,0-0.3,0C153.6,48.5,153.4,48.5,153.2,47.9z"/>
	<path class="st4" d="M64,58.7c-1.4-1.2-2.5-2.4-3.1-3.4c-0.7-1-1.1-2.1-1.4-3.2c-0.3-1.2-0.5-2.4-0.5-3.8c-0.1-1.4-0.1-3.1-0.3-5.1
		c0-0.2,0-0.7,0.1-2.4c0.1-1.4,0.2-3.1,0.3-5c0.1-2,0.3-4.2,0.4-6.5c0.1-2.4,0.2-4.7,0.3-7.1c0.1-2.2,0.1-4.4,0.2-6.6
		c0-2.2,0-3.9-0.2-5.3C59.6,8.7,59.4,7.6,59,7c-0.4-0.8-1.1-0.9-1.4-0.9c-1,0-1.6,1-1.8,1.4c-1.8,3.1-3.4,6.2-4.9,9.5
		c-1.5,3.2-2.9,6.4-4.4,9.6c-1.4,3.2-2.9,6.4-4.5,9.5c-1.5,3-3.2,6-5.1,8.8c-0.2,0.1-0.5,0.2-1.1,0.4c-0.7,0.2-1.5,0.3-2.2,0.5
		c-0.8,0.2-1.5,0.4-2.1,0.6c-1,0.4-1.6,0.9-1.8,1.6c-0.1,0.3-0.1,0.6,0.1,0.9c0.2,0.3,0.4,0.6,1,0.9c0.3,0.3,0.7,0.5,1.1,0.8
		c0.3,0.2,0.6,0.4,0.9,0.6c-0.1,0.2-0.2,0.4-0.5,0.8c-0.5,0.8-1.2,1.7-2,2.8c-0.8,1.1-1.8,2.2-2.9,3.4c-1.1,1.2-2.2,2.4-3.5,3.5
		c-1.2,1.1-2.4,2.1-3.7,3.1c-1.2,0.9-2.4,1.6-3.4,2.1c-0.9,0.4-1.7,0.6-2.5,0.6l-0.2,0c-0.6,0-1.1-0.3-1.5-0.9
		c-0.2-0.3-0.6-0.4-0.9-0.4c-1.2,0-1.7,0.7-1.8,1.3c-0.1,0.5,0,1,0.3,1.5c0.2,0.4,0.4,0.8,0.7,1.1c0.3,0.3,0.5,0.6,0.8,0.7
		c1.3,0.9,2.7,1.4,4.1,1.4c0.2,0,0.4,0,0.5,0c1.5-0.1,3-0.6,4.5-1.5c1.4-0.9,2.8-2,4.2-3.4c1.3-1.3,2.7-2.8,4-4.4
		c1.3-1.6,2.6-3.2,3.8-4.8c1.2-1.6,2.4-3.1,3.5-4.4c1.1-1.3,2.2-2.5,3.2-3.4c0.9-0.8,1.7-1.3,2.5-1.5l2.2-0.6c1-0.3,2-0.5,3.1-0.8
		c1.1-0.3,2.1-0.6,3-0.8c0.8-0.2,1.4-0.3,1.7-0.4c0.1,0,0.2,0,0.4,0c0.3,0,0.7,0,0.9,0c0,0,0.1,0,0.1,0c0.2,0.2,0.5,0.5,0.6,1
		c0.3,0.9,0.6,1.9,0.9,3.1c0.3,1.2,0.6,2.4,0.9,3.7c0.4,1.4,0.8,2.6,1.3,3.6c0.6,1.2,1.4,2.1,2.4,2.6c1.1,0.7,2.4,0.7,4,0.2
		c0.4-0.1,0.7-0.4,0.8-0.8C64.4,59.4,64.3,59,64,58.7z M44.4,43.4l9.3-19.2v4c0,0.7-0.1,1.5-0.1,2.4c0,0.9-0.1,1.9-0.1,2.9l-0.1,3
		c0,1-0.1,1.9-0.1,2.7c0,0.7-0.1,1.4-0.1,2.3l-0.7,0.7c-1.2,0.2-2.2,0.4-3.1,0.5c-0.9,0.2-1.9,0.3-2.9,0.4
		C45.7,43.2,45.1,43.2,44.4,43.4z"/>
	<path class="st4" d="M98.1,65.3c-0.2-0.1-0.5-0.4-0.8-0.7c-1.7-1.4-3.4-2.7-4.9-2.8c-3.7-0.3-7.5-0.4-11.3-0.4
		c-27.9,0-54,6.5-73.6,18.4l0,0l0,0c-0.5,0.3-0.7,1-0.4,1.6c0.1,0.2,0.3,0.3,0.5,0.4c0.1,0.1,0.3,0.2,0.5,0.4
		c1.8,1.6,3.8,3.1,5.4,3.1c0.4,0,0.8-0.1,1.1-0.3c19-11.6,44.6-17.9,72-17.9c3.7,0,7.5,0.2,11.2,0.4c0,0,0,0,0.1,0h0
		c0.6,0,1.2-0.5,1.2-1.1C99,65.9,98.6,65.4,98.1,65.3z M13.5,84.2L13.5,84.2L13.5,84.2L13.5,84.2z"/>
	<polygon class="st4" points="67.9,91.1 65.7,91.1 65.7,79.7 67.9,79.7 67.9,84.3 71.6,84.3 71.6,79.7 73.8,79.7 73.8,91.1 
		71.6,91.1 71.6,86.4 67.9,86.4 	"/>
	<path class="st4" d="M76.4,83.5c0.9-0.9,2-1.4,3.2-1.4c1.3,0,2.3,0.4,3.2,1.2c0.9,0.9,1.4,2.1,1.4,3.2c0,1.3-0.4,2.4-1.3,3.3
		c-0.9,0.9-2,1.4-3.3,1.4c-1.3,0-2.3-0.5-3.2-1.4c-0.8-0.9-1.3-2-1.3-3.2C75.1,85.5,75.6,84.4,76.4,83.5 M79.6,89.3
		c1.5,0,2.4-1,2.4-2.7c0-1.5-1-2.5-2.4-2.5c-1.4,0-2.4,1-2.4,2.5C77.2,88.3,78.2,89.3,79.6,89.3"/>
	<path class="st4" d="M86.7,88.3c0,0.8,0.5,1.3,1,1.3c0.6,0,1-0.4,1-1c0-0.5-0.3-0.8-0.9-1.1c-0.8-0.4-1.4-0.5-1.6-0.7
		c-0.6-0.5-0.9-1.1-0.9-2c0-1.5,1.2-2.6,2.6-2.6c1.5,0,2.5,0.9,2.6,2.5h-1.8v-0.1c0-0.6-0.3-0.9-0.8-0.9c-0.4,0-0.8,0.4-0.8,0.8
		c0,0.7,0.6,0.8,1.6,1.3c1.4,0.6,1.9,1.2,1.9,2.6c0,1.6-1.2,2.8-2.9,2.8c-1.6,0-2.8-1.2-2.9-3.1L86.7,88.3L86.7,88.3z"/>
	<path class="st4" d="M93.8,93.9h-2V82.4h2v0.7c0.8-0.7,1.7-0.9,2.7-0.9c1.1,0,2.1,0.4,2.8,1c1.1,0.9,1.6,2.2,1.6,3.6
		c0,1.3-0.5,2.5-1.5,3.3c-0.8,0.8-1.9,1.2-3,1.2c-1.1,0-1.9-0.3-2.7-0.9V93.9z M96.4,89.3c1.4,0,2.5-1.2,2.5-2.6
		c0-1.4-1.1-2.5-2.6-2.5c-1.3,0-2.4,1.1-2.4,2.5C93.9,88.2,95,89.3,96.4,89.3"/>
	<path class="st4" d="M102.3,79.7h2v1.9h-2V79.7z M102.3,82.4h2v8.6h-2V82.4z"/>
	<polygon class="st4" points="106.7,84.2 105.4,84.2 105.4,82.4 106.7,82.4 106.7,79.7 108.7,79.7 108.7,82.4 110,82.4 110,84.2 
		108.7,84.2 108.7,91.1 106.7,91.1 	"/>
	<path class="st4" d="M117.7,90c-0.5,0.8-1.4,1.2-2.7,1.2c-2.6,0-4.5-2-4.5-4.5c0-1.2,0.4-2.3,1.2-3.2c0.9-0.9,1.9-1.3,3.2-1.3
		c1.2,0,2.1,0.4,2.7,1.3v-1.1h2v8.6h-1.9V90z M115,89.2c1.3,0,2.4-1.1,2.4-2.4c0-1.4-1.1-2.6-2.4-2.6c-1.3,0-2.5,1.1-2.5,2.4
		C112.6,88.2,113.7,89.2,115,89.2"/>
	<rect x="121.4" y="79.7" class="st4" width="1.9" height="11.4"/>
	<path class="st4" d="M125.1,79.7h2v1.9h-2V79.7z M125.1,82.4h2v8.6h-2V82.4z"/>
	<polygon class="st4" points="129.5,84.2 128.2,84.2 128.2,82.4 129.5,82.4 129.5,79.7 131.5,79.7 131.5,82.4 132.8,82.4 
		132.8,84.2 131.5,84.2 131.5,91.1 129.5,91.1 	"/>
	<polygon class="st4" points="134.9,82.4 137,88.4 139.3,82.4 141.4,82.4 136.7,93.9 134.7,93.9 135.9,90.8 132.8,82.4 	"/>
	<path class="st4" d="M158,85.4c0,1-0.2,1.8-0.5,2.6c-1.1,2.2-3,3.4-5.3,3.4c-1.7,0-3.2-0.7-4.4-2c-1-1.1-1.5-2.5-1.5-4.1
		c0-1.6,0.6-3,1.8-4.2c1.1-1.1,2.5-1.7,4.2-1.7c2.4,0,4.3,1.2,5.3,3.6h-2.7c-0.7-0.8-1.6-1.3-2.7-1.3c-2,0-3.5,1.6-3.5,3.6
		c0,2,1.6,3.6,3.6,3.6c1.4,0,2.6-0.8,3.2-2.1h-4.5V85h7.1C158,85.1,158,85.3,158,85.4"/>
	<path class="st4" d="M161.3,86.6v4.4h-2v-8.6h1.9v1c0.6-0.8,1.3-1.1,2.2-1.1v1.9C161.7,84.3,161.3,85.1,161.3,86.6"/>
	<path class="st4" d="M165,83.5c0.9-0.9,2-1.4,3.2-1.4c1.2,0,2.3,0.4,3.2,1.2c0.9,0.9,1.4,2.1,1.4,3.2c0,1.3-0.4,2.4-1.3,3.3
		c-0.9,0.9-2,1.4-3.3,1.4c-1.3,0-2.4-0.5-3.2-1.4c-0.8-0.9-1.3-2-1.3-3.2C163.7,85.5,164.1,84.4,165,83.5 M168.2,89.3
		c1.5,0,2.4-1,2.4-2.7c0-1.5-1.1-2.5-2.4-2.5c-1.4,0-2.4,1-2.4,2.5C165.8,88.3,166.7,89.3,168.2,89.3"/>
	<path class="st4" d="M179.6,90.1c-0.6,0.8-1.3,1.2-2.3,1.2c-2.1,0-3.4-1.4-3.4-3.9v-5h2v3.9c0,2.1,0.3,3.1,1.8,3.1
		c1.5,0,1.9-1.1,1.9-3.2v-3.8h2v8.6h-2V90.1z"/>
	<path class="st4" d="M185.2,93.9h-2V82.4h2v0.7c0.8-0.7,1.7-0.9,2.7-0.9c1.1,0,2.1,0.4,2.8,1c1.1,0.9,1.6,2.2,1.6,3.6
		c0,1.3-0.5,2.5-1.5,3.3c-0.8,0.8-1.8,1.2-3,1.2c-1.1,0-1.9-0.3-2.7-0.9V93.9z M187.8,89.3c1.4,0,2.5-1.2,2.5-2.6
		c0-1.4-1.1-2.5-2.6-2.5c-1.3,0-2.4,1.1-2.4,2.5C185.3,88.2,186.4,89.3,187.8,89.3"/>
</g>
</svg>
