<?xml version="1.0" encoding="utf-8"?>
<!-- Generator: Adobe Illustrator 21.1.0, SVG Export Plug-In . SVG Version: 6.00 Build 0)  -->
<svg version="1.1" id="Capa_1" xmlns="http://www.w3.org/2000/svg" xmlns:xlink="http://www.w3.org/1999/xlink" x="0px" y="0px"
	 viewBox="0 0 666 327" style="enable-background:new 0 0 666 327;" xml:space="preserve">
<style type="text/css">
	.st0{fill:#FFFFFF;}
</style>
<g>
	<path class="st0" d="M302.7,74.8c-1.5-2-4-3.1-7.4-3.3c-2.6-0.2-5.7,0-9,0.6c-3.1,0.7-6.3,1.4-9.2,2.3c-3.1,0.9-5.7,1.6-8.1,2.6
		c-3.2,1.1-4.2,1.5-5,2.2c-5.4,3.4-10.4,7.6-14.8,12.2c-3.6,3.8-7,7.7-10.2,12c-0.2-0.4-0.3-0.5-0.6-0.9c-1-1.4-2-2.7-3.2-3.7
		c-1.5-1.5-3-1.6-4.1-1.6c-1.1,0-2.7,0.2-4.1,1.8c-1.8,1.7-3.4,4.7-5,9.1c-1.3,3.8-2.6,8.1-3.8,12.8c-1.2,4.7-2.3,9.7-3.3,14.8
		c-1,5.1-1.8,10-2.4,14.3c-0.6,4.3-1.1,8-1.4,10.9c-0.4,4.2-0.7,7.2,1.8,8.3c0.5,0.3,1.4,0.9,2.4,1.4c1.7,0.9,2.7,1.4,3.8,1.4
		c3.2,0,5.1-3,6.8-5.7c1.5-2.5,3.3-5.8,5.3-9.7c2.1-4,4.5-8.5,7.2-13.6c2.6-4.8,5.6-10,9-15.4c3.2-5.1,6.9-10.2,10.7-15.2
		c3.9-5,7.9-9.5,12.2-13.2c4.2-3.7,8.6-6.7,13.4-9.1c4.5-2.1,9.3-3.2,14.4-3.4c1.3,0,2.6-0.8,3.3-1.8
		C304.3,80.8,304.7,77.4,302.7,74.8z"/>
	<path class="st0" d="M384.2,74.8c-1.5-2-4-3.1-7.5-3.3c-2.6-0.2-5.5,0-9,0.6c-3.1,0.7-6.2,1.4-9.3,2.3c-3,0.9-5.7,1.6-8,2.6
		c-3.2,1.1-4.2,1.5-5,2.2c-5.4,3.4-10.4,7.6-14.8,12.2c-3.5,3.8-7,7.7-10.1,12c-0.2-0.4-0.5-0.5-0.6-0.9c-1-1.4-2.1-2.6-3.1-3.7
		c-1.5-1.5-3.1-1.6-4.1-1.6c-1.1,0-2.7,0.2-4.2,1.8c-1.8,1.7-3.5,4.7-4.9,9c-1.3,3.7-2.6,7.9-3.8,12.8c-1.2,4.8-2.4,9.7-3.3,14.8
		c-1,5.1-1.8,10-2.4,14.4c-0.6,4.3-1.2,8-1.5,10.9c-0.5,4.2-0.8,7.2,1.8,8.3c0.6,0.3,1.4,0.9,2.5,1.4c1.7,0.9,2.6,1.4,3.8,1.4
		c3.2,0,5.1-3,6.8-5.7c1.4-2.5,3.2-5.8,5.3-9.7c2.1-4,4.4-8.5,7.2-13.6c2.7-5.1,5.8-10.2,9-15.4c3.2-5.1,6.8-10.2,10.7-15.2
		c3.8-5,7.9-9.5,12.2-13.2c4.2-3.7,8.7-6.7,13.4-9.1c4.6-2.1,9.4-3.2,14.4-3.4c1.4,0,2.6-0.8,3.4-1.8
		C385.7,80.9,386.1,77.4,384.2,74.8z"/>
	<g>
		<path class="st0" d="M403.9,97.3c-3.3,0-6,3.1-8.1,6.3c-3,4.1-6.6,11.1-10.9,21.1c-4.3,9.8-9,23.2-14.1,39.8
			c-0.3,1-0.3,1.9,0.1,2.7c1,2.7,3.1,4.4,5.8,5c0.8,0.1,1.5,0.2,2.2,0.2c1.3,0,2.5-0.2,3.7-0.7c0.8-0.2,1.6-0.9,2.1-1.7
			c7-12.5,12.5-23.5,16.3-33c3.9-9.8,6.4-17.4,7.7-23.5c1.6-7.2,1.4-11.4-0.5-13.9C407.1,98.1,405.6,97.3,403.9,97.3z"/>
		<path class="st0" d="M421.2,70.6c-0.7-2.7-2.4-4.8-5-6.1c-2.5-1.2-5.6-1.2-9.6,0.1c-1,0.4-1.7,1.1-2.3,1.9c-0.6,1.1-0.7,2-0.7,3.1
			c-0.1,0.7-0.1,1.3-0.1,2.1s0,1.6,0.1,2.5c0.1,0.8,0.2,1.6,0.4,2.4c1,2.7,2.8,6.4,6,7.6c1,0.3,2,0.6,3,0.6c1.6,0,3.2-0.6,4.5-1.6
			c1.7-1.3,2.9-3.2,3.6-5.8C421.6,75.1,421.7,72.9,421.2,70.6z"/>
	</g>
	<path class="st0" d="M517.8,83.9c-1.7-3-5.3-3.9-9.5-1.3c-2.2,1.4-5,3.6-8.3,6.6c-3.2,2.9-6.7,6.2-10.6,10.4
		c-3.8,3.9-7.9,8.1-12.1,12.8c-4.2,4.6-8.4,9-12.6,13.4c-4.2,4.3-8.2,8.5-12.1,12.3c-3.8,3.7-7.3,6.9-10.5,9.4
		c-2.3,1.9-4.4,3.4-6.1,4.1c-0.1-3.1,0-6.2,0.3-9.2c0.3-4.2,0.7-8.5,1.1-12.5c0.4-4.4,0.8-8.5,1-12.8c0.3-4.5,0.2-9-0.1-13.4
		c-0.1-0.7-0.3-1.5-0.8-2.1c-1-1.4-2-2.5-2.9-3.4c-1-0.9-2-1.6-3-2.2c-2.1-0.9-4.3-0.8-6.1,0.4c-0.9,0.6-1.5,1.4-1.7,2.5
		c-0.4,1.8-1,4.4-1.9,7.8c-0.9,3.4-1.8,7.2-2.6,11.6c-0.9,4.1-1.6,8.5-2.3,13.5c-0.7,4.8-0.9,9.5-0.8,13.7c0.2,4.5,0.9,8.7,2.2,12.2
		c1.5,4.1,3.9,7.4,7.3,9.3c3.2,2,6.7,3,10.3,3c1,0,1.9-0.1,2.9-0.3c4.2-0.6,8.6-2.1,12.9-4.6c4.1-2.5,8.3-5.8,12.6-9.6
		c4.1-3.8,8.2-7.9,12.3-12.4c4-4.5,8-9.2,11.6-13.9c3.8-4.6,7.4-9.1,10.8-13.5c3.3-4.1,6.5-8,9.4-11.6c2.8-3.2,5.3-5.9,7.4-7.9
		c0.5-0.4,0.9-1.1,1.2-1.7C518.8,89.1,519,86.2,517.8,83.9z"/>
	<path class="st0" d="M660.6,118.2c-0.7-1.7-3-4.8-10.6-3.2c-0.6,0.2-1.1,0.2-1.6,0.7c-3.6,2.7-7,4.9-9.9,6.9c-3,2-6.4,4.1-10.3,6.5
		c-3.9,2.2-7.8,4.6-11.8,6.6c-3.9,1.9-7.9,3.8-11.7,5.1c-3.7,1.3-7,2-9.9,2.3c-2.4,0.2-4.4-0.3-5.8-1c-1.1-0.7-1.8-2.3-2.1-4.5
		c-0.5-3.2-0.4-6.4,0.3-9.5c0.7-3.6,1.7-7.1,2.9-10.3c1.3-3.6,2.6-7.1,4-10.3c1.5-3.8,2.7-7.5,3.3-11c0.7-3.8,0.7-7.6,0.1-11.3
		c-0.6-4-2.4-7.8-5.3-11.4c-4.7-5.9-10.1-9.2-16-10.1c-5.7-0.9-11.6,0.1-17.5,2.8c-5.5,2.6-11.1,6.4-16.5,11.6
		c-5.3,5-10.3,10.7-14.8,16.9c-4.4,6.2-8.5,12.8-12,19.8c-3.5,6.9-6.1,13.7-7.9,20.2c-1.7,6.5-2.4,12.5-2.1,17.9
		c0.4,6,2.5,10.8,6.4,14c4.1,3.5,8.4,5.4,12.9,5.9c1,0.1,2.1,0.2,3.1,0.2c3.2,0,6.5-0.7,9.7-1.8c4-1.4,8-3.4,11.8-6.2
		c3.6-2.7,7.1-5.5,10.3-8.4c3.1-2.9,6.1-5.8,8.7-8.7c1.3-1.3,2.5-2.6,3.5-3.6c1,1.8,2.1,3.6,3.4,5c3.6,4.5,8.1,7.1,13.3,8.3
		c4.9,1,10.2,1.1,15.8,0c5.4-0.8,10.9-2.6,16.4-4.9c5.4-2.2,10.6-4.8,15.4-7.9c4.8-2.8,9.1-5.9,12.9-8.9c4-3.2,6.9-5.9,8.9-8.5
		C659,126,662.1,122.2,660.6,118.2z M520.5,156.2c-0.5-2-0.4-4.9,0.4-8.4c0.9-3.8,2.3-8.3,4.4-12.9c2.1-5,4.7-10.1,7.7-15.2
		c3-5.2,6.3-10.2,9.9-15c3.4-4.8,7.1-9.3,10.9-13.5c3.7-4.1,7.3-7.5,10.8-10c3.2-2.3,6.2-3.9,8.8-4.5c0.6-0.2,1.2-0.4,1.8-0.4
		c0.5,0,1,0.1,1.4,0.3c0.6,4.8,0.4,9.9-0.6,15c-1.1,5.9-2.9,11.8-5.3,17.3c-2.5,5.6-5.4,11.3-8.9,16.4c-3.5,5.3-7.2,10.2-11.1,14.5
		c-3.9,4.3-7.8,8-11.6,11.1c-3.8,2.9-7.2,5.1-10.3,6.4c-2,0.7-3.8,1.3-5.2,1.3c-0.5,0-0.8-0.1-1.2-0.2
		C521.9,158.4,521.1,158.2,520.5,156.2z"/>
	<path class="st0" d="M206,194.1c-4.9-4.4-8.6-8.5-11-12.1c-2.4-3.6-4-7.3-5-11.2c-1-4.1-1.6-8.5-1.8-13.4c-0.2-5.1-0.5-11-1-18
		c0-0.6-0.1-2.4,0.3-8.6c0.3-4.9,0.6-10.7,1-17.7c0.5-7,0.9-14.7,1.4-23c0.5-8.3,0.9-16.7,1.2-24.9c0.3-7.8,0.5-15.6,0.5-23.1
		c0.1-7.7-0.1-13.7-0.6-18.6c-0.5-5.7-1.3-9.4-2.6-11.5c-1.5-2.8-3.8-3.1-4.8-3.1c-3.6,0-5.6,3.7-6.4,5c-6.3,10.8-12.1,22-17.3,33.4
		c-5.1,11.3-10.3,22.6-15.4,33.9c-4.9,11.1-10.3,22.5-15.8,33.6c-5.3,10.7-11.4,21.2-18,31.2c-0.7,0.3-1.8,0.7-3.8,1.3
		c-2.6,0.5-5.3,1.1-7.9,1.7c-2.7,0.7-5.3,1.5-7.5,2.2c-3.4,1.3-5.5,3.2-6.3,5.7c-0.3,1.2-0.2,2.2,0.2,3.3c0.5,1.1,1.6,2,3.4,3.3
		c1.2,0.9,2.5,1.8,3.9,2.7c1.1,0.7,2.1,1.5,3,2.2c-0.3,0.7-0.8,1.5-1.6,2.8c-1.7,2.8-4.1,6.1-7,9.7c-2.9,3.7-6.4,7.9-10.3,12
		c-3.8,4.3-7.9,8.4-12.2,12.4c-4.2,4-8.6,7.5-12.9,10.7c-4.3,3.1-8.4,5.7-12.1,7.3c-3.2,1.4-6.1,2.2-8.7,2.2l-0.6,0
		c-2.1-0.2-3.8-1.2-5.2-3.1c-0.8-1-2-1.5-3.3-1.5c-4.2,0-6,2.6-6.3,4.8c-0.2,1.7,0.1,3.4,1,5.2c0.7,1.5,1.6,2.8,2.6,4
		c1,1.2,1.9,2,2.7,2.6c4.7,3.2,9.6,4.8,14.6,4.8c0.6,0,1.3,0,1.9,0c5.2-0.5,10.5-2.2,15.7-5.2c4.9-3.1,9.9-7,14.8-11.9
		c4.7-4.7,9.4-9.8,13.9-15.5c4.6-5.6,9.1-11.1,13.3-16.8c4.2-5.6,8.4-10.8,12.2-15.4c3.9-4.6,7.7-8.7,11.2-12
		c3.2-2.8,6.1-4.7,8.7-5.4l7.7-2.1c3.4-0.9,7.1-1.8,10.9-2.7c3.9-0.9,7.4-1.9,10.6-2.6c2.9-0.7,4.9-1.2,6.1-1.5
		c0.3,0,0.8-0.1,1.3-0.1c1.2-0.1,2.6-0.1,3.3,0c0.2,0,0.3,0,0.5,0c0.8,0.6,1.6,1.8,2.3,3.6c1.2,3.2,2.3,6.7,3.2,10.8
		c1,4.2,2.2,8.6,3.2,13.1c1.2,4.9,2.8,9.1,4.8,12.8c2.1,4.2,4.9,7.4,8.3,9.3c3.8,2.4,8.6,2.6,14.1,0.7c1.4-0.4,2.5-1.5,2.8-3
		C207.5,196.6,207,195.2,206,194.1z M137.1,140.1l32.9-67.7v14.2c-0.2,2.4-0.3,5.4-0.3,8.6c-0.1,3.3-0.3,6.7-0.4,10.2l-0.5,10.5
		c-0.2,3.5-0.3,6.7-0.5,9.4c-0.1,2.5-0.3,5.1-0.5,8l-2.5,2.6c-4.2,0.7-7.9,1.2-10.9,1.6c-3.2,0.6-6.7,1-10.2,1.4
		C141.6,139.5,139.3,139.7,137.1,140.1z"/>
	<path class="st0" d="M326.3,217.4c-0.6-0.5-1.9-1.5-2.9-2.3c-6.1-5.1-12-9.6-17.3-9.9c-13.1-0.9-26.5-1.2-39.7-1.2
		C168.1,203.9,76,227,7,268.8h0v0c-1.9,1.2-2.6,3.6-1.4,5.6c0.5,0.7,1,1.2,1.7,1.5c0.4,0.4,1,0.8,1.7,1.4
		c6.5,5.7,13.4,10.9,18.9,10.9c1.4,0,2.7-0.2,3.8-1c67.1-40.8,157.2-63.2,253.7-63.2c13.1,0,26.3,0.6,39.4,1.3c0,0,0.2,0,0.3,0h0
		c2.3,0,4.1-1.9,4.1-4C329.3,219.5,328,217.8,326.3,217.4z M27.9,284.2L27.9,284.2L27.9,284.2L27.9,284.2z"/>
	<polygon class="st0" points="219.8,308.3 211.9,308.3 211.9,268 219.8,268 219.8,284.3 232.8,284.3 232.8,268 240.6,268 
		240.6,308.3 232.8,308.3 232.8,292 219.8,292 	"/>
	<path class="st0" d="M249.9,281.7c3.1-3.1,7.1-4.8,11.2-4.8c4.4,0,8,1.5,11.1,4.3c3.2,3,5,7.3,5,11.4c0,4.6-1.4,8.5-4.5,11.6
		c-3,3.2-7,4.9-11.5,4.9c-4.5,0-8.3-1.7-11.3-5c-2.9-3.1-4.5-6.9-4.5-11.2C245.3,288.7,246.9,284.8,249.9,281.7 M261.2,302.1
		c5.2,0,8.6-3.6,8.6-9.5c0-5.2-3.7-8.7-8.6-8.7c-5.1,0-8.6,3.6-8.6,9C252.6,298.6,256,302.1,261.2,302.1"/>
	<path class="st0" d="M286.3,298.6c0,2.8,1.6,4.6,3.6,4.6c2.1,0,3.5-1.4,3.5-3.4c0-1.9-1-2.8-3.2-3.9c-2.7-1.3-4.8-1.9-5.7-2.6
		c-2.2-1.9-3.3-4-3.3-7c0-5.1,4.1-9,9.2-9c5.4,0,8.7,3.3,9,8.9h-6.3v-0.2c0-2-1.1-3.1-2.9-3.1c-1.6,0-2.9,1.2-2.9,2.8
		c0,2.4,2.1,2.7,5.8,4.4c4.8,2.1,6.8,4.2,6.8,9.3c0,5.6-4.3,9.9-10.1,9.9c-5.8,0-9.7-4.2-10.1-10.9h6.5V298.6z"/>
	<path class="st0" d="M311.2,318.2h-6.9v-40.3h6.9v2.6c2.8-2.3,6-3.3,9.5-3.3c3.8,0,7.3,1.2,9.9,3.4c3.7,3.2,5.8,7.7,5.8,12.7
		c0,4.4-1.8,8.7-5.1,11.7c-2.9,2.7-6.6,4.2-10.6,4.2c-3.8,0-6.8-1.1-9.5-3.2V318.2z M320.2,302.1c4.9,0,8.8-4.2,8.8-9
		c0-5-3.8-8.9-9.1-8.9c-4.6,0-8.4,3.8-8.4,8.8C311.5,298.2,315.3,302.1,320.2,302.1"/>
	<path class="st0" d="M341.2,268h7v6.6h-7V268z M341.2,277.9h7v30.4h-7V277.9z"/>
	<polygon class="st0" points="356.6,284.2 352,284.2 352,277.9 356.6,277.9 356.6,268 363.7,268 363.7,277.9 368.4,277.9 
		368.4,284.2 363.7,284.2 363.7,308.3 356.6,308.3 	"/>
	<path class="st0" d="M395.3,304.6c-1.8,3-4.8,4.4-9.5,4.4c-9.1,0-15.8-6.9-15.8-16c0-4.2,1.6-8.2,4.4-11.2c3-3.3,6.7-4.6,11.3-4.6
		c4.4,0,7.6,1.3,9.6,4.5v-3.7h6.9v30.4h-6.8V304.6z M386,301.8c4.5,0,8.4-4,8.4-8.6c0-5.1-4-9.1-8.5-9.1c-4.7,0-8.7,3.8-8.7,8.6
		C377.3,298.1,381.2,301.8,386,301.8"/>
	<rect x="408.4" y="268" class="st0" width="6.8" height="40.3"/>
	<path class="st0" d="M421.6,268h7v6.6h-7V268z M421.6,277.9h7v30.4h-7V277.9z"/>
	<polygon class="st0" points="437,284.2 432.4,284.2 432.4,277.9 437,277.9 437,268 444.1,268 444.1,277.9 448.8,277.9 448.8,284.2 
		444.1,284.2 444.1,308.3 437,308.3 	"/>
	<polygon class="st0" points="455.9,277.9 463.3,299 471.5,277.9 478.9,277.9 462.5,318.2 455.2,318.2 459.4,307.4 448.5,277.9 	"/>
	<path class="st0" d="M537.6,288.2c0,3.6-0.6,6.4-1.9,9c-3.8,7.6-10.6,12-18.8,12c-6.1,0-11.3-2.4-15.4-6.9
		c-3.4-3.8-5.2-8.8-5.2-14.3c0-5.6,2.2-10.7,6.4-14.9c3.9-3.9,8.7-5.8,14.8-5.8c8.6,0,15.1,4.3,18.5,12.5h-9.6
		c-2.3-3-5.5-4.4-9.4-4.4c-6.9,0-12.4,5.7-12.4,12.8c0,7.2,5.5,12.8,12.6,12.8c4.8,0,9.2-2.7,11.1-7.3h-15.8v-6.8h25.1
		C537.6,287.4,537.6,287.8,537.6,288.2"/>
	<path class="st0" d="M549.1,292.7v15.6h-7.1v-30.4h6.7v3.5c2.1-2.7,4.5-4,7.8-4v6.7C550.4,284.5,549.1,287.1,549.1,292.7"/>
	<path class="st0" d="M562.2,281.7c3-3.1,7-4.8,11.2-4.8c4.4,0,8.1,1.5,11.1,4.3c3.2,3,5,7.3,5,11.4c0,4.6-1.4,8.5-4.5,11.6
		c-3.1,3.2-7,4.9-11.5,4.9c-4.5,0-8.3-1.7-11.4-5c-2.9-3.1-4.5-6.9-4.5-11.2C557.5,288.7,559.1,284.8,562.2,281.7 M573.5,302.1
		c5.2,0,8.6-3.6,8.6-9.5c0-5.2-3.7-8.7-8.6-8.7c-5.1,0-8.6,3.6-8.6,9C564.8,298.6,568.3,302.1,573.5,302.1"/>
	<path class="st0" d="M613.7,305c-2.1,2.8-4.7,4.2-8.2,4.2c-7.5,0-11.8-4.9-11.8-13.7v-17.6h7.2v13.6c0,7.2,1.1,10.8,6.3,10.8
		c5.2,0,6.6-3.8,6.6-11.1v-13.2h7v30.4h-7V305z"/>
	<path class="st0" d="M633.4,318.2h-6.9v-40.3h6.9v2.6c2.8-2.3,5.9-3.3,9.5-3.3c3.9,0,7.3,1.2,10,3.4c3.7,3.2,5.7,7.7,5.7,12.7
		c0,4.4-1.8,8.7-5.1,11.7c-2.9,2.7-6.5,4.2-10.5,4.2c-3.8,0-6.8-1.1-9.5-3.2V318.2z M642.5,302.1c5,0,8.8-4.2,8.8-9
		c0-5-3.8-8.9-9.2-8.9c-4.5,0-8.4,3.8-8.4,8.8C633.7,298.2,637.5,302.1,642.5,302.1"/>
</g>
</svg>
